HIERARCHY
ROOT Hips
{
	OFFSET 0.000000 0.000000 0.000000
	CHANNELS 6 Xposition Yposition Zposition Zrotation Yrotation Xrotation 
	JOINT Spine1
	{
		OFFSET -0.013727 5.003762 -0.053727
		CHANNELS 3 Zrotation Yrotation Xrotation
		JOINT Spine2
		{
			OFFSET -0.000000 7.125302 -0.029825
			CHANNELS 3 Zrotation Yrotation Xrotation
			JOINT Chest
			{
				OFFSET -0.000001 7.550064 -0.815971
				CHANNELS 3 Zrotation Yrotation Xrotation
				JOINT Neck1
				{
					OFFSET -0.181677 26.311296 -0.553348
					CHANNELS 3 Zrotation Yrotation Xrotation
					JOINT Neck2
					{
						OFFSET -0.000003 7.709399 2.302586
						CHANNELS 3 Zrotation Yrotation Xrotation
						JOINT Head
						{
							OFFSET -0.000005 6.128913 1.953709
							CHANNELS 3 Zrotation Yrotation Xrotation
							JOINT HeadEnd
							{
								OFFSET 0.003598 16.065401 -1.835379
								CHANNELS 3 Zrotation Yrotation Xrotation
								End Site
								{
									OFFSET 0.000000 0.000000 0.000000
								}
							}
							JOINT Jaw
							{
								OFFSET 0.002637 0.475591 3.094941
								CHANNELS 3 Zrotation Yrotation Xrotation
								End Site
								{
									OFFSET 0.000000 0.000000 0.000000
								}
							}
							JOINT LeftEye
							{
								OFFSET 3.206380 5.380208 7.586883
								CHANNELS 3 Zrotation Yrotation Xrotation
								End Site
								{
									OFFSET 0.000000 0.000000 0.000000
								}
							}
							JOINT RightEye
							{
								OFFSET -3.222440 5.361866 7.558233
								CHANNELS 3 Zrotation Yrotation Xrotation
								End Site
								{
									OFFSET 0.000000 0.000000 0.000000
								}
							}
						}
					}
				}
				JOINT LeftShoulder
				{
					OFFSET 1.621652 23.237164 5.113413
					CHANNELS 3 Zrotation Yrotation Xrotation
					JOINT LeftArm
					{
						OFFSET 14.919845 -0.000000 -5.502326
						CHANNELS 3 Zrotation Yrotation Xrotation
						JOINT LeftForeArm
						{
							OFFSET 28.739309 0.000004 -0.002587
							CHANNELS 3 Zrotation Yrotation Xrotation
							JOINT LeftHand
							{
								OFFSET 27.093979 -0.000003 0.002609
								CHANNELS 3 Zrotation Yrotation Xrotation
								JOINT LeftHandThumb1
								{
									OFFSET 2.276479 -1.392046 3.191413
									CHANNELS 3 Zrotation Yrotation Xrotation
									JOINT LeftHandThumb2
									{
										OFFSET 4.012842 -1.828126 1.641655
										CHANNELS 3 Zrotation Yrotation Xrotation
										JOINT LeftHandThumb3
										{
											OFFSET 2.798517 0.000002 -0.000003
											CHANNELS 3 Zrotation Yrotation Xrotation
											JOINT LeftHandThumbEnd
											{
												OFFSET 3.180791 -0.000002 0.000002
												CHANNELS 3 Zrotation Yrotation Xrotation
												End Site
												{
													OFFSET 0.000000 0.000000 0.000000
												}
											}
										}
									}
								}
								JOINT LeftHandIndex1
								{
									OFFSET 3.247553 -0.531999 2.296169
									CHANNELS 3 Zrotation Yrotation Xrotation
									JOINT LeftHandIndex2
									{
										OFFSET 6.364579 0.012062 0.178600
										CHANNELS 3 Zrotation Yrotation Xrotation
										JOINT LeftHandIndex3
										{
											OFFSET 3.662366 0.000001 0.000000
											CHANNELS 3 Zrotation Yrotation Xrotation
											JOINT LeftHandIndex4
											{
												OFFSET 2.329241 0.000000 0.000003
												CHANNELS 3 Zrotation Yrotation Xrotation
												JOINT LeftHandIndexEnd
												{
													OFFSET 2.759619 -0.180538 -0.113024
													CHANNELS 3 Zrotation Yrotation Xrotation
													End Site
													{
														OFFSET 0.000000 0.000000 0.000000
													}
												}
											}
										}
									}
								}
								JOINT LeftHandMiddle1
								{
									OFFSET 3.163498 0.240981 1.000332
									CHANNELS 3 Zrotation Yrotation Xrotation
									JOINT LeftHandMiddle2
									{
										OFFSET 6.190778 -0.259276 -1.002549
										CHANNELS 3 Zrotation Yrotation Xrotation
										JOINT LeftHandMiddle3
										{
											OFFSET 4.356522 -0.000006 0.000000
											CHANNELS 3 Zrotation Yrotation Xrotation
											JOINT LeftHandMiddle4
											{
												OFFSET 2.996876 -0.000005 0.000001
												CHANNELS 3 Zrotation Yrotation Xrotation
												JOINT LeftHandMiddleEnd
												{
													OFFSET 2.304294 -0.294571 -0.031739
													CHANNELS 3 Zrotation Yrotation Xrotation
													End Site
													{
														OFFSET 0.000000 0.000000 0.000000
													}
												}
											}
										}
									}
								}
								JOINT LeftHandRing1
								{
									OFFSET 2.882641 -0.053650 -0.322543
									CHANNELS 3 Zrotation Yrotation Xrotation
									JOINT LeftHandRing2
									{
										OFFSET 5.854543 -0.486203 -1.373841
										CHANNELS 3 Zrotation Yrotation Xrotation
										JOINT LeftHandRing3
										{
											OFFSET 4.350579 -0.000001 0.000003
											CHANNELS 3 Zrotation Yrotation Xrotation
											JOINT LeftHandRing4
											{
												OFFSET 2.651324 0.000008 0.000004
												CHANNELS 3 Zrotation Yrotation Xrotation
												JOINT LeftHandRingEnd
												{
													OFFSET 1.936111 0.077684 -0.000070
													CHANNELS 3 Zrotation Yrotation Xrotation
													End Site
													{
														OFFSET 0.000000 0.000000 0.000000
													}
												}
											}
										}
									}
								}
								JOINT LeftHandPinky1
								{
									OFFSET 2.865500 -0.310004 -1.600378
									CHANNELS 3 Zrotation Yrotation Xrotation
									JOINT LeftHandPinky2
									{
										OFFSET 5.087852 -1.331142 -1.771231
										CHANNELS 3 Zrotation Yrotation Xrotation
										JOINT LeftHandPinky3
										{
											OFFSET 3.070976 0.000003 0.000001
											CHANNELS 3 Zrotation Yrotation Xrotation
											JOINT LeftHandPinky4
											{
												OFFSET 1.549667 -0.000000 0.000000
												CHANNELS 3 Zrotation Yrotation Xrotation
												JOINT LeftHandPinkyEnd
												{
													OFFSET 1.944895 -0.157800 0.057219
													CHANNELS 3 Zrotation Yrotation Xrotation
													End Site
													{
														OFFSET 0.000000 0.000000 0.000000
													}
												}
											}
										}
									}
								}
							}
						}
					}
				}
				JOINT RightShoulder
				{
					OFFSET -1.380118 23.180305 5.214158
					CHANNELS 3 Zrotation Yrotation Xrotation
					JOINT RightArm
					{
						OFFSET -15.037197 0.000012 -5.545604
						CHANNELS 3 Zrotation Yrotation Xrotation
						JOINT RightForeArm
						{
							OFFSET -28.736639 0.000004 -0.002596
							CHANNELS 3 Zrotation Yrotation Xrotation
							JOINT RightHand
							{
								OFFSET -27.133617 -0.000000 0.002613
								CHANNELS 3 Zrotation Yrotation Xrotation
								JOINT RightHandThumb1
								{
									OFFSET -2.274036 -1.383990 3.163128
									CHANNELS 3 Zrotation Yrotation Xrotation
									JOINT RightHandThumb2
									{
										OFFSET -4.011427 -1.827468 1.640914
										CHANNELS 3 Zrotation Yrotation Xrotation
										JOINT RightHandThumb3
										{
											OFFSET -2.794935 -0.000003 -0.000003
											CHANNELS 3 Zrotation Yrotation Xrotation
											JOINT RightHandThumbEnd
											{
												OFFSET -3.183854 0.000003 -0.000000
												CHANNELS 3 Zrotation Yrotation Xrotation
												End Site
												{
													OFFSET 0.000000 0.000000 0.000000
												}
											}
										}
									}
								}
								JOINT RightHandIndex1
								{
									OFFSET -3.253269 -0.520060 2.282866
									CHANNELS 3 Zrotation Yrotation Xrotation
									JOINT RightHandIndex2
									{
										OFFSET -6.341918 0.012473 0.178265
										CHANNELS 3 Zrotation Yrotation Xrotation
										JOINT RightHandIndex3
										{
											OFFSET -3.654875 -0.000009 -0.000001
											CHANNELS 3 Zrotation Yrotation Xrotation
											JOINT RightHandIndex4
											{
												OFFSET -2.327586 0.000000 0.000000
												CHANNELS 3 Zrotation Yrotation Xrotation
												JOINT RightHandIndexEnd
												{
													OFFSET -2.761789 -0.180657 -0.113079
													CHANNELS 3 Zrotation Yrotation Xrotation
													End Site
													{
														OFFSET 0.000000 0.000000 0.000000
													}
												}
											}
										}
									}
								}
								JOINT RightHandMiddle1
								{
									OFFSET -3.168105 0.246593 1.001030
									CHANNELS 3 Zrotation Yrotation Xrotation
									JOINT RightHandMiddle2
									{
										OFFSET -6.180830 -0.258836 -1.000896
										CHANNELS 3 Zrotation Yrotation Xrotation
										JOINT RightHandMiddle3
										{
											OFFSET -4.348906 -0.000000 -0.000000
											CHANNELS 3 Zrotation Yrotation Xrotation
											JOINT RightHandMiddle4
											{
												OFFSET -3.000243 -0.000004 -0.000002
												CHANNELS 3 Zrotation Yrotation Xrotation
												JOINT RightHandMiddleEnd
												{
													OFFSET -2.302518 -0.294371 -0.031706
													CHANNELS 3 Zrotation Yrotation Xrotation
													End Site
													{
														OFFSET 0.000000 0.000000 0.000000
													}
												}
											}
										}
									}
								}
								JOINT RightHandRing1
								{
									OFFSET -2.885692 -0.067952 -0.308858
									CHANNELS 3 Zrotation Yrotation Xrotation
									JOINT RightHandRing2
									{
										OFFSET -5.854198 -0.486132 -1.373731
										CHANNELS 3 Zrotation Yrotation Xrotation
										JOINT RightHandRing3
										{
											OFFSET -4.338814 -0.000004 -0.000000
											CHANNELS 3 Zrotation Yrotation Xrotation
											JOINT RightHandRing4
											{
												OFFSET -2.654905 -0.000005 0.000004
												CHANNELS 3 Zrotation Yrotation Xrotation
												JOINT RightHandRingEnd
												{
													OFFSET -1.933571 0.077524 -0.000052
													CHANNELS 3 Zrotation Yrotation Xrotation
													End Site
													{
														OFFSET 0.000000 0.000000 0.000000
													}
												}
											}
										}
									}
								}
								JOINT RightHandPinky1
								{
									OFFSET -2.866429 -0.342798 -1.584145
									CHANNELS 3 Zrotation Yrotation Xrotation
									JOINT RightHandPinky2
									{
										OFFSET -5.091369 -1.332054 -1.772385
										CHANNELS 3 Zrotation Yrotation Xrotation
										JOINT RightHandPinky3
										{
											OFFSET -3.062666 -0.000006 0.000001
											CHANNELS 3 Zrotation Yrotation Xrotation
											JOINT RightHandPinky4
											{
												OFFSET -1.546527 0.000005 -0.000002
												CHANNELS 3 Zrotation Yrotation Xrotation
												JOINT RightHandPinkyEnd
												{
													OFFSET -1.945122 -0.157721 0.057211
													CHANNELS 3 Zrotation Yrotation Xrotation
													End Site
													{
														OFFSET 0.000000 0.000000 0.000000
													}
												}
											}
										}
									}
								}
							}
						}
					}
				}
			}
		}
	}
	JOINT LeftLeg
	{
		OFFSET 10.043214 -8.434526 2.595655
		CHANNELS 3 Zrotation Yrotation Xrotation
		JOINT LeftShin
		{
			OFFSET -0.000001 -43.221752 -0.802913
			CHANNELS 3 Zrotation Yrotation Xrotation
			JOINT LeftFoot
			{
				OFFSET 0.000001 -42.155094 -3.481523
				CHANNELS 3 Zrotation Yrotation Xrotation
				JOINT LeftToeBase
				{
					OFFSET 0.000000 -5.059474 13.231529
					CHANNELS 3 Zrotation Yrotation Xrotation
					JOINT LeftToeEnd
					{
						OFFSET -0.009607 -1.647615 6.513017
						CHANNELS 3 Zrotation Yrotation Xrotation
						End Site
						{
							OFFSET 0.000000 0.000000 0.000000
						}
					}
				}
			}
		}
	}
	JOINT RightLeg
	{
		OFFSET -10.047277 -8.295259 2.620317
		CHANNELS 3 Zrotation Yrotation Xrotation
		JOINT RightShin
		{
			OFFSET 0.000000 -43.362209 -0.805556
			CHANNELS 3 Zrotation Yrotation Xrotation
			JOINT RightFoot
			{
				OFFSET 0.000002 -42.117393 -3.478399
				CHANNELS 3 Zrotation Yrotation Xrotation
				JOINT RightToeBase
				{
					OFFSET -0.000001 -5.079609 13.284196
					CHANNELS 3 Zrotation Yrotation Xrotation
					JOINT RightToeEnd
					{
						OFFSET 0.009532 -1.634383 6.460591
						CHANNELS 3 Zrotation Yrotation Xrotation
						End Site
						{
							OFFSET 0.000000 0.000000 0.000000
						}
					}
				}
			}
		}
	}
}
MOTION
Frames: 4
Frame Time: 0.033333
-0.940640 92.433556 -0.779753 0.839806 -0.398836 0.664789 0.952771 0.025821 1.237377 -0.055760 0.435709 -3.841059 2.948892 -1.834000 12.296297 -4.886137 5.246425 6.275000 1.544391 7.514264 -3.327791 -3.640658 8.779787 -15.174619 0.000077 -0.000022 0.000006 -0.007634 -0.116127 0.060202 0.753708 -3.862529 -10.611700 -0.776957 3.633838 -10.569987 -9.045905 -12.141295 7.800486 -16.678059 -27.602541 -53.375641 177.028442 -76.709946 -175.222900 14.170115 -10.134463 -27.026033 -5.882101 9.861278 0.702591 -10.936859 -0.360573 7.156197 -0.000001 8.774814 -0.000002 -16.800133 17.913767 6.019040 -1.844030 2.498503 -2.507276 -10.163589 4.678939 4.621104 -20.975996 -0.000001 0.000002 -21.226254 2.451694 -3.593994 0.000000 -0.000005 -0.000001 -1.362681 2.240797 -0.746322 -21.334892 0.584910 3.008321 -13.821194 -0.000002 0.000002 -23.887129 -0.249080 -0.839483 -60.226181 2.679789 -1.004861 -0.294024 1.679685 0.833256 -14.218190 0.093214 1.300580 -34.211998 -0.287562 0.967171 -20.033176 0.964536 1.212842 0.000000 -0.000000 0.000000 -3.440387 0.788233 0.501655 -15.928165 -3.167305 2.999703 -6.338817 0.000000 0.000001 -18.123413 3.648175 -4.905662 -0.000005 0.000001 -0.000002 5.386266 19.120361 8.379953 45.074654 61.395931 -6.513638 -178.179276 57.735935 -179.051422 -5.399003 4.472108 -14.868115 2.243540 -5.255033 -3.180156 14.282877 -0.826593 6.952496 -0.000000 -12.690593 -0.000003 16.250111 -18.237907 2.929601 1.665664 -1.955919 -2.878297 4.727791 -4.170582 4.993918 11.020512 0.000004 0.000001 12.109030 -3.735710 -2.866779 0.000001 0.000000 0.000002 1.291984 -1.928548 -1.498088 14.800109 0.567469 3.865606 14.242553 -1.341733 -6.660646 19.631939 0.143925 -0.648243 49.903126 -0.979695 -6.301216 0.353027 -1.511148 -0.031941 20.222769 3.684306 2.316629 18.787245 0.000006 0.000001 10.751611 -0.479866 1.397904 -0.000001 0.000000 0.000000 3.273804 0.305946 -0.580110 21.486790 11.830363 2.266132 8.162917 0.000001 0.000000 18.399054 -3.798980 -4.940566 0.000001 -0.000002 -0.000000 19.396879 17.425579 -19.993248 -0.409856 -1.229602 23.344810 -21.919683 -2.238193 2.627064 1.665913 -1.920381 -1.369959 -0.000000 0.000000 0.000002 -21.756342 -8.373996 -8.697655 0.232558 0.755371 28.930265 21.971909 5.495626 -14.572462 -1.422099 1.109447 -2.509554 0.000000 0.000000 -0.000001 
-0.934094 92.435867 -0.709287 0.845722 -0.713637 0.684956 0.966141 0.021630 1.207011 -0.021055 0.422349 -3.868104 2.956499 -1.763333 12.357472 -4.917355 5.216239 6.274101 1.552310 7.616957 -3.342441 -3.702586 8.915669 -15.015162 0.000077 -0.000022 0.000006 -0.000754 -0.101670 0.067328 0.751095 -3.848607 -10.595884 -0.758387 3.640795 -10.557095 -9.023287 -12.084000 7.687582 -16.855001 -27.474581 -53.229847 176.620834 -76.968552 -174.889725 14.262428 -10.528713 -27.671606 -5.882102 9.861279 0.702589 -10.936858 -0.360575 7.156196 -0.000001 8.774816 -0.000002 -16.887672 17.869062 6.016493 -1.844030 2.498502 -2.507275 -10.163592 4.678941 4.621103 -20.975996 -0.000001 0.000002 -21.226255 2.451694 -3.593994 0.000000 -0.000004 -0.000000 -1.362680 2.240796 -0.746323 -21.334887 0.584908 3.008320 -13.821194 -0.000002 0.000002 -23.887123 -0.249076 -0.839483 -60.333946 2.559138 -1.020358 -0.294025 1.679687 0.833255 -14.218194 0.093215 1.300579 -34.212002 -0.287562 0.967168 -20.033180 0.964537 1.212842 -0.000000 -0.000001 0.000000 -3.440386 0.788232 0.501654 -15.928165 -3.167307 2.999702 -6.338818 0.000000 0.000001 -18.123411 3.648176 -4.905663 -0.000006 -0.000000 -0.000003 5.395226 19.194128 8.430643 45.240112 61.592484 -6.334289 -178.465927 57.767128 -179.151031 -5.517178 4.772972 -15.226695 2.243539 -5.255033 -3.180154 14.282877 -0.826592 6.952497 -0.000001 -12.690590 -0.000002 16.115082 -18.187647 2.948866 1.665665 -1.955919 -2.878297 4.727796 -4.170582 4.993919 11.020511 0.000005 -0.000000 12.109032 -3.735709 -2.866778 -0.000000 -0.000000 0.000001 1.291984 -1.928548 -1.498087 14.800114 0.567468 3.865606 14.242554 -1.341735 -6.660646 19.631939 0.143925 -0.648242 49.763016 -0.992809 -6.298709 0.353029 -1.511149 -0.031941 20.222773 3.684306 2.316629 18.787247 0.000005 0.000002 10.751610 -0.479866 1.397904 -0.000001 0.000000 0.000000 3.273804 0.305947 -0.580111 21.486795 11.830361 2.266135 8.162918 0.000001 0.000000 18.399054 -3.798979 -4.940565 0.000001 -0.000003 -0.000000 19.481722 17.381248 -19.874943 -0.393394 -1.199191 23.485203 -21.855188 -1.919479 2.451248 1.665923 -1.932485 -1.395059 0.000000 0.000000 0.000002 -21.782112 -8.379869 -8.831650 0.220374 0.756897 28.952847 21.970364 5.716704 -14.456719 -1.425592 1.066718 -2.572396 -0.000000 -0.000000 -0.000001 
-0.888014 92.416176 -0.680220 0.859898 -0.935560 0.699680 0.982329 0.027221 1.175374 -0.004046 0.390701 -3.898086 2.975025 -1.695311 12.397378 -4.976126 5.232847 6.353883 1.551368 7.703581 -3.363050 -3.773214 9.046463 -14.851764 0.000077 -0.000022 0.000006 0.004850 -0.097072 0.072920 0.741553 -3.851018 -10.606889 -0.742304 3.647459 -10.572274 -8.977326 -12.059404 7.540225 -17.095579 -27.393202 -53.071320 176.320572 -77.229729 -174.604019 14.305536 -10.902986 -28.207733 -5.882101 9.861278 0.702589 -10.936857 -0.360573 7.156196 -0.000001 8.774816 0.000000 -16.924128 17.821449 6.001103 -1.844030 2.498503 -2.507277 -10.163589 4.678940 4.621105 -20.975992 -0.000003 0.000000 -21.226248 2.451691 -3.593995 0.000000 -0.000004 -0.000001 -1.362680 2.240794 -0.746323 -21.334890 0.584909 3.008319 -13.821195 -0.000003 0.000002 -23.887131 -0.249077 -0.839481 -60.441814 2.516363 -1.071370 -0.294024 1.679686 0.833255 -14.218192 0.093215 1.300579 -34.212002 -0.287563 0.967167 -20.033180 0.964532 1.212841 0.000000 0.000001 0.000002 -3.440384 0.788232 0.501655 -15.928167 -3.167306 2.999703 -6.338817 -0.000003 0.000001 -18.123413 3.648178 -4.905663 -0.000005 -0.000000 -0.000002 5.383583 19.298559 8.433897 45.397530 61.784016 -6.228096 -178.708359 57.840244 -179.193161 -5.626982 5.090380 -15.690132 2.243540 -5.255032 -3.180155 14.282877 -0.826593 6.952496 -0.000002 -12.690590 0.000000 15.930927 -18.122618 2.994263 1.665665 -1.955920 -2.878297 4.727794 -4.170582 4.993918 11.020512 0.000004 -0.000001 12.109030 -3.735708 -2.866778 0.000001 -0.000000 0.000001 1.291983 -1.928547 -1.498088 14.800114 0.567468 3.865605 14.242553 -1.341732 -6.660649 19.631937 0.143925 -0.648241 49.632950 -1.011227 -6.328303 0.353029 -1.511149 -0.031940 20.222769 3.684306 2.316628 18.787247 0.000004 -0.000001 10.751611 -0.479868 1.397904 0.000000 0.000000 0.000000 3.273805 0.305947 -0.580111 21.486792 11.830362 2.266132 8.162918 0.000001 0.000000 18.399052 -3.798980 -4.940566 0.000002 -0.000001 -0.000001 19.499985 17.369923 -19.886614 -0.382519 -1.171438 23.739437 -21.820496 -1.721920 2.251235 1.666956 -1.947699 -1.375723 0.000000 -0.000000 0.000002 -21.853193 -8.445395 -8.962700 0.230710 0.776092 29.016325 21.992678 5.927425 -14.362968 -1.426802 1.050985 -2.578870 -0.000000 0.000000 -0.000001 
-0.896841 92.352051 -0.644641 0.865163 -1.116330 0.707541 1.010370 0.040421 1.152180 0.002037 0.386677 -3.913693 2.992095 -1.653558 12.391439 -5.094790 5.255695 6.444183 1.580381 7.780692 -3.385659 -3.833449 9.147816 -14.627678 0.000077 -0.000021 0.000006 0.005825 -0.103666 0.076130 0.733083 -3.861250 -10.603032 -0.732305 3.639962 -10.579414 -8.933442 -11.990875 7.464159 -17.277597 -27.371826 -53.041847 176.463821 -77.497452 -174.766403 14.348128 -11.261620 -28.718853 -5.882100 9.861276 0.702591 -10.936860 -0.360572 7.156198 -0.000001 8.774815 -0.000000 -16.865768 17.765364 6.021763 -1.844031 2.498503 -2.507276 -10.163589 4.678939 4.621106 -20.975994 -0.000004 0.000004 -21.226254 2.451694 -3.593992 0.000001 -0.000006 -0.000002 -1.362680 2.240797 -0.746323 -21.334890 0.584909 3.008322 -13.821197 -0.000002 0.000003 -23.887131 -0.249078 -0.839481 -60.443050 2.525615 -1.106709 -0.294024 1.679686 0.833255 -14.218192 0.093214 1.300580 -34.212002 -0.287561 0.967171 -20.033180 0.964537 1.212842 0.000000 -0.000001 0.000000 -3.440385 0.788233 0.501655 -15.928167 -3.167307 2.999705 -6.338815 -0.000001 0.000002 -18.123411 3.648178 -4.905662 -0.000005 0.000001 -0.000002 5.298886 19.431467 8.353607 45.564960 61.913570 -6.320397 -179.070694 57.950329 -179.419266 -5.677936 5.395986 -16.266735 2.243541 -5.255032 -3.180156 14.282875 -0.826593 6.952497 -0.000002 -12.690590 0.000000 15.777468 -18.068102 3.030382 1.665663 -1.955920 -2.878296 4.727791 -4.170582 4.993918 11.020512 0.000004 -0.000001 12.109030 -3.735708 -2.866779 -0.000000 -0.000001 0.000002 1.291984 -1.928547 -1.498086 14.800113 0.567469 3.865603 14.242553 -1.341734 -6.660647 19.631937 0.143927 -0.648244 49.535042 -1.019552 -6.291931 0.353028 -1.511150 -0.031939 20.222769 3.684307 2.316627 18.787249 0.000006 0.000001 10.751610 -0.479866 1.397904 -0.000000 0.000002 -0.000000 3.273804 0.305948 -0.580108 21.486790 11.830365 2.266131 8.162916 0.000001 -0.000001 18.399048 -3.798979 -4.940567 0.000002 -0.000001 -0.000000 19.554865 17.458551 -19.940271 -0.377686 -1.154431 24.055706 -21.851259 -1.670822 2.035422 1.665014 -1.947309 -1.337345 0.000000 0.000000 0.000002 -21.882318 -8.503901 -9.120330 0.241505 0.785679 29.204828 21.991247 6.140401 -14.496733 -1.429430 1.047855 -2.517327 0.000000 0.000000 -0.000001 
